# xmcd
#
# Track frame offsets:
#	150
#	14056
#	29348
#	44452
#	56471
#	69508
#	79426
#	94835
#
# Disc length: 1409 seconds
#
# Revision: 0
# Processed by: cddbd v1.5.2PL0 Copyright (c) Steve Scherf et al.
# Submitted via: audiograbber 1.83.01
#
DISCID=6a057f08
DTITLE=Hillcrest - Hillcrest 48
DYEAR=1999
DGENRE=Country
TTITLE0=Cross The Borderline - Daniel Moore
TTITLE1=Old Blue - Phillip Norris
TTITLE2=The Ruels - Heather Smith
TTITLE3=You´ll See - Tony Wait
TTITLE4=What Were You Thinking - Cheryl Cook
TTITLE5=Call Me Up - Dale Mckay
TTITLE6=Daddio´s Papito - Lee Palmer
TTITLE7=Toll Free Number - Karen Alayne
EXTD=
EXTT0=
EXTT1=
EXTT2=
EXTT3=
EXTT4=
EXTT5=
EXTT6=
EXTT7=
PLAYORDER=
